{"asset":{"generator":"Khronos glTF Blender I/O v3.4.50","version":"2.0"},"scene":0,"scenes":[{"name":"Scene","nodes":[0]}],"nodes":[{"mesh":0,"name":"Mesh","rotation":[0.7071068286895752,0,0,0.7071068286895752]}],"meshes":[{"name":"Mesh","primitives":[{"attributes":{"POSITION":0,"TEXCOORD_0":1,"NORMAL":2},"indices":3}]}],"accessors":[{"bufferView":0,"componentType":5126,"count":960,"max":[0.5799999833106995,0.07999999821186066,0.5799999833106995],"min":[-0.5799999833106995,-0.07999999821186066,-0.5799999833106995],"type":"VEC3"},{"bufferView":1,"componentType":5126,"count":960,"type":"VEC2"},{"bufferView":2,"componentType":5126,"count":960,"type":"VEC3"},{"bufferView":3,"componentType":5123,"count":960,"type":"SCALAR"}],"bufferViews":[{"buffer":0,"byteLength":11520,"byteOffset":0,"target":34962},{"buffer":0,"byteLength":7680,"byteOffset":11520,"target":34962},{"buffer":0,"byteLength":11520,"byteOffset":19200,"target":34962},{"buffer":0,"byteLength":1920,"byteOffset":30720,"target":34963}],"buffers":[{"byteLength":32640,"uri":"data:application/octet-stream;base64,"}]}