{"asset":{"generator":"Khronos glTF Blender I/O v3.4.50","version":"2.0"},"extensionsUsed":["KHR_materials_specular","KHR_materials_ior"],"scene":0,"scenes":[{"name":"Scene","nodes":[0]}],"nodes":[{"mesh":0,"name":"Wing","rotation":[0.7071068286895752,0,0,0.7071068286895752]}],"materials":[{"doubleSided":true,"extensions":{"KHR_materials_specular":{"specularColorFactor":[0,0,0]},"KHR_materials_ior":{"ior":1.4500000476837158}},"name":"Union1Mtl","pbrMetallicRoughness":{"baseColorFactor":[0.800000011920929,0.800000011920929,0.800000011920929,1],"metallicFactor":0}}],"meshes":[{"name":"Wing","primitives":[{"attributes":{"POSITION":0,"TEXCOORD_0":1,"NORMAL":2},"indices":3,"material":0}]}],"accessors":[{"bufferView":0,"componentType":5126,"count":153,"max":[0.036752499639987946,0.7340059876441956,2.5689098834991455],"min":[-0.03675369918346405,-0.7340059876441956,-2.5689098834991455],"type":"VEC3"},{"bufferView":1,"componentType":5126,"count":153,"type":"VEC2"},{"bufferView":2,"componentType":5126,"count":153,"type":"VEC3"},{"bufferView":3,"componentType":5123,"count":156,"type":"SCALAR"}],"bufferViews":[{"buffer":0,"byteLength":1836,"byteOffset":0,"target":34962},{"buffer":0,"byteLength":1224,"byteOffset":1836,"target":34962},{"buffer":0,"byteLength":1836,"byteOffset":3060,"target":34962},{"buffer":0,"byteLength":312,"byteOffset":4896,"target":34963}],"buffers":[{"byteLength":5208,"uri":"data:application/octet-stream;base64,"}]}