# This file is brought to you by Roblox Corporation
# Generated by Roblox Studio

mtllib Wing.mtl

g Union1

v 0.036698 1.83494 -2.96039e-05 
v -0.0366992 1.83494 -2.96039e-05 
v -0.0366992 2.56891 -2.96039e-05 
v -0.0366992 1.83494 -2.96039e-05 
v 0.036698 1.83494 -2.96039e-05 
v 0.0366968 1.83494 0.73394 
v -0.0366992 1.83494 0.73394 
v 0.0366968 1.83494 0.73394 
v 0.0366968 2.56891 -2.96039e-05 
v -0.0366992 1.83494 0.73394 
v -0.0367537 -2.56891 -1.83544e-05 
v 0.0366435 -2.56891 -1.83544e-05 
v -0.0367537 1.83489 0.734006 
v 0.0366435 -2.56891 -1.83544e-05 
v -0.0367537 -2.56891 -1.83544e-05 
v -0.0367525 1.8349 3.67088e-05 
v 0.0366424 1.8349 3.55246e-05 
v -0.0367525 1.8349 3.67088e-05 
v -0.0367537 -2.56891 -1.83544e-05 
v -0.0367537 1.83489 0.734006 
v 0.0366424 1.8349 3.55246e-05 
v -0.0367525 1.8349 3.67088e-05 
v 0.0366424 1.83489 0.734005 
v 0.0366435 -2.56891 -1.83544e-05 
v 0.0366424 1.8349 3.55246e-05 
v 0.0366424 1.83489 0.734005 
v 0.0367134 1.83489 -0.733996 
v 0.0367134 1.83489 -0.734006 
v 0.0367134 1.8349 -0.733998 
v 0.0367134 1.83489 -0.734006 
v 0.0367134 1.83489 -0.733996 
v -0.0366826 1.83489 -0.734006 
v -0.0366435 1.83489 -0.733996 
v 0.0367134 1.83489 -0.733996 
v 0.0367513 -2.56888 -3.43405e-05 
v -0.0366435 1.83489 -0.733996 
v 0.0367134 1.83489 -0.734006 
v -0.0366826 1.83489 -0.734006 
v 0.0367134 1.8349 -0.733998 
v -0.0366447 1.83489 -3.67088e-05 
v -0.0366435 1.83489 -0.733996 
v -0.0366459 -2.56888 -3.49326e-05 
v -0.0366447 1.83489 -3.67088e-05 
v -0.0366838 1.83489 -3.73009e-05 
v -0.0366838 1.83489 -3.73009e-05 
v -0.0366447 1.83489 -3.67088e-05 
v -0.0366826 2.56886 -3.61167e-05 
v -0.0366826 1.83489 -0.734006 
v -0.0366838 1.83489 -3.73009e-05 
v -0.0366826 2.56886 -3.61167e-05 
v -0.0366459 -2.56888 -3.49326e-05 
v -0.0366459 -2.56888 -3.49326e-05 
v 0.0367513 -2.56888 -3.43405e-05 
v -0.0366447 1.83493 -3.31563e-05 
v 0.0367513 1.83493 -0.734003 
v -0.0366447 1.83493 -3.31563e-05 
v -0.0366447 1.83493 -3.61167e-05 
v 0.0367122 1.83493 -3.67088e-05 
v 0.0367122 1.83493 -3.67088e-05 
v -0.0366447 1.83493 -3.61167e-05 
v -0.0366447 1.83493 -3.31563e-05 
v 0.0367134 2.56886 -3.67088e-05 
v -0.0366447 1.83493 -3.61167e-05 
v 0.0367525 1.83493 -3.37484e-05 
v 0.0367525 1.83493 -3.37484e-05 
v 0.0367146 1.83493 -0.733966 
v 0.0367525 1.83493 -3.37484e-05 
v 0.0367513 -2.56888 -3.43405e-05 
v 0.0367513 1.83493 -0.734003 
v -0.0366435 1.83493 -0.733967 
v -0.0366447 1.83493 -0.734003 
v 0.0367146 1.83493 -0.733966 
v -0.0366435 1.83493 -0.733967 
v 0.0367134 2.56886 -3.67088e-05 
v -0.0366447 1.8349 -0.733998 
v -0.0366826 2.56886 -3.61167e-05 
v 0.0367134 1.8349 -0.733998 
v -0.0366447 1.8349 -0.733998 
v -0.0366447 1.8349 -0.733998 
v -0.0366435 1.83493 -0.733967 
v -0.0366447 1.83493 -0.734003 
v -0.0366447 1.83493 -0.734003 
v 0.0367513 1.83493 -0.734003 
v 0.0367122 1.83493 -3.67088e-05 
v 0.0367146 1.83493 -0.733966 
v 0.0367134 2.56886 -3.67088e-05 
v 0.0366424 1.83489 0.734005 
v -0.0367537 1.83489 0.734006 
v 0.0366968 2.56891 -2.96039e-05 
v 0.0366968 1.83494 0.73394 
v 0.036698 1.83494 -2.96039e-05 
v 0.0366968 2.56891 -2.96039e-05 
v -0.0366992 2.56891 -2.96039e-05 
v -0.0366992 1.83494 -2.96039e-05 
v -0.0366992 1.83494 0.73394 
v -0.0366992 2.56891 -2.96039e-05 

vn 0 0 -1 
vn 0 0 -1 
vn 0 0 -1 
vn 0 -1 0 
vn 0 -1 0 
vn 0 -1 0 
vn 0 0.708661 0.708661 
vn 0 0.708661 0.708661 
vn 0 0.708661 0.708661 
vn 0 -1 0 
vn 0 -0.165354 0.984252 
vn 0 -0.165354 0.984252 
vn 0 -0.165354 0.984252 
vn 0 0 -1 
vn 0 0 -1 
vn 0 0 -1 
vn 0 0 -1 
vn -1 0 0 
vn -1 0 0 
vn -1 0 0 
vn 0 1 0 
vn 0 1 0 
vn 0 1 0 
vn 1 0 0 
vn 1 0 0 
vn 1 0 0 
vn 1 0 0 
vn 1 0 0 
vn 1 0 0 
vn 0 -1 0 
vn 0 -1 0 
vn 0 -1 0 
vn 0 -0.165354 -0.984252 
vn 0 -0.165354 -0.984252 
vn 0 -0.165354 -0.984252 
vn 0 -1 0 
vn 0 0.708661 -0.708661 
vn 0 0.708661 -0.708661 
vn 0 0.708661 -0.708661 
vn -1 0 0 
vn -1 0 0 
vn -1 0 0 
vn 0 -1 0 
vn 0 -1 0 
vn 0 0 1 
vn 0 0 1 
vn 0 0 1 
vn -1 0 0 
vn -1 0 0 
vn -1 0 0 
vn 0 -0.165354 -0.984252 
vn 0 0 1 
vn 0 0 1 
vn 0 0 1 
vn 0 -0.165354 -0.984252 
vn -1 0 0 
vn 0 0 1 
vn 0 0 1 
vn 0 1 0 
vn 0 1 0 
vn 0 1 0 
vn 0 0 1 
vn -1 0 0 
vn 0 0 1 
vn 0 1 0 
vn 0 1 0 
vn 1 0 0 
vn 1 0 0 
vn 1 0 0 
vn 0 1 0 
vn 0 1 0 
vn 0 0.708661 -0.708661 
vn 0 0.708661 -0.708661 
vn 0 0.708661 -0.708661 
vn 0 0.708661 -0.708661 
vn 0 0.708661 -0.708661 
vn 0 -0.165354 -0.984252 
vn 0 -0.165354 -0.984252 
vn -1 0 0 
vn -1 0 0 
vn -1 0 0 
vn 0 -0.165354 -0.984252 
vn 0 1 0 
vn 1 0 0 
vn 1 0 0 
vn 1 0 0 
vn 0 -0.165354 0.984252 
vn 0 1 0 
vn 1 0 0 
vn 1 0 0 
vn 1 0 0 
vn 0 0 -1 
vn -1 0 0 
vn -1 0 0 
vn -1 0 0 
vn 0 0.708661 0.708661 

vt 0.868392 -1.55408 
vt 0.859217 -1.55408 
vt 0.859217 -1.64582 
vt 0.859217 -1.32471 
vt 0.868392 -1.32471 
vt 0.868392 -1.23297 
vt 0.868392 -1.23297 
vt 0.859218 -1.23297 
vt 0.859218 -1.32471 
vt 0.859217 -1.23297 
vt 0.868399 -1.0036 
vt 0.859224 -1.0036 
vt 0.868399 -1.55407 
vt 0.868385 -1.0036 
vt 0.859211 -1.0036 
vt 0.859211 -1.55407 
vt 0.868385 -1.55407 
vt 0.8638 -1.55407 
vt 0.863807 -1.0036 
vt 0.772054 -1.55407 
vt 0.859225 -1.3247 
vt 0.868399 -1.3247 
vt 0.859225 -1.23296 
vt 0.863803 -1.0036 
vt 0.863809 -1.55407 
vt 0.955556 -1.55407 
vt 0.772055 -1.55407 
vt 0.772054 -1.55407 
vt 0.772055 -1.55407 
vt 0.868394 -1.41646 
vt 0.868394 -1.41646 
vt 0.85922 -1.41646 
vt 0.859224 -1.55407 
vt 0.868394 -1.55407 
vt 0.868399 -1.0036 
vt 0.859224 -1.41646 
vt 0.868394 -1.55407 
vt 0.85922 -1.55407 
vt 0.868394 -1.55407 
vt 0.863809 -1.55407 
vt 0.955554 -1.55407 
vt 0.863809 -1.0036 
vt 0.859224 -1.32471 
vt 0.859219 -1.32471 
vt 0.86839 -1.55407 
vt 0.868385 -1.55407 
vt 0.86839 -1.64582 
vt 0.955556 -1.55407 
vt 0.86381 -1.55407 
vt 0.863809 -1.64582 
vt 0.859224 -1.0036 
vt 0.868386 -1.0036 
vt 0.859211 -1.0036 
vt 0.868385 -1.55408 
vt 0.868399 -1.55408 
vt 0.863809 -1.55408 
vt 0.868385 -1.55408 
vt 0.859216 -1.55408 
vt 0.859216 -1.32471 
vt 0.868385 -1.32471 
vt 0.868385 -1.32471 
vt 0.859216 -1.64582 
vt 0.863809 -1.55408 
vt 0.859211 -1.55408 
vt 0.859211 -1.32471 
vt 0.859216 -1.41646 
vt 0.863801 -1.55408 
vt 0.863801 -1.0036 
vt 0.772054 -1.55408 
vt 0.868385 -1.41646 
vt 0.868385 -1.41646 
vt 0.868394 -1.55408 
vt 0.859224 -1.55408 
vt 0.868394 -1.64582 
vt 0.859224 -1.55407 
vt 0.85922 -1.64582 
vt 0.868394 -1.55407 
vt 0.859224 -1.55407 
vt 0.955555 -1.55407 
vt 0.955551 -1.55408 
vt 0.955555 -1.55408 
vt 0.859224 -1.55408 
vt 0.859211 -1.41646 
vt 0.8638 -1.55408 
vt 0.772059 -1.55408 
vt 0.8638 -1.64582 
vt 0.859225 -1.55407 
vt 0.868399 -1.23296 
vt 0.863801 -1.64582 
vt 0.955547 -1.55408 
vt 0.863801 -1.55408 
vt 0.868392 -1.64582 
vt 0.863809 -1.64582 
vt 0.863809 -1.55408 
vt 0.772062 -1.55408 
vt 0.868392 -1.32471 

usemtl Union1Mtl

f 1/1/1 2/2/2 3/3/3 
f 4/4/4 5/5/5 6/6/6 
f 7/7/7 8/8/8 9/9/9 
f 6/6/6 10/10/10 4/4/4 
f 11/11/11 12/12/12 13/13/13 
f 14/14/14 15/15/15 16/16/16 
f 14/14/14 16/16/16 17/17/17 
f 18/18/18 19/19/19 20/20/20 
f 21/21/21 22/22/22 23/23/23 
f 24/24/24 25/25/25 26/26/26 
f 27/27/27 28/28/28 29/29/29 
f 30/30/30 31/31/31 32/32/32 
f 33/33/33 34/34/34 35/35/35 
f 31/31/31 36/36/36 32/32/32 
f 37/37/37 38/38/38 39/39/39 
f 40/40/40 41/41/41 42/42/42 
f 36/36/36 43/43/43 44/44/44 
f 45/45/45 46/46/46 47/47/47 
f 48/48/48 49/49/49 50/50/50 
f 44/44/44 32/32/32 36/36/36 
f 35/35/35 51/51/51 33/33/33 
f 52/52/52 53/53/53 54/54/54 
f 35/35/35 34/34/34 55/55/55 
f 40/40/40 42/42/42 56/56/56 
f 57/57/57 47/47/47 46/46/46 
f 47/47/47 57/57/57 58/58/58 
f 59/59/59 60/60/60 61/61/61 
f 47/47/47 58/58/58 62/62/62 
f 63/63/63 40/40/40 56/56/56 
f 64/64/64 54/54/54 53/53/53 
f 61/61/61 65/65/65 59/59/59 
f 59/59/59 65/65/65 66/66/66 
f 67/67/67 68/68/68 69/69/69 
f 70/70/70 66/66/66 71/71/71 
f 72/72/72 73/73/73 74/74/74 
f 38/38/38 73/73/73 75/75/75 
f 73/73/73 38/38/38 76/76/76 
f 77/77/77 78/78/78 55/55/55 
f 75/75/75 39/39/39 38/38/38 
f 79/79/79 80/80/80 81/81/81 
f 82/82/82 55/55/55 78/78/78 
f 83/83/83 71/71/71 66/66/66 
f 83/83/83 66/66/66 65/65/65 
f 77/77/77 55/55/55 34/34/34 
f 84/84/84 85/85/85 86/86/86 
f 12/12/12 87/87/87 13/13/13 
f 88/88/88 23/23/23 22/22/22 
f 89/89/89 90/90/90 91/91/91 
f 92/92/92 1/1/1 3/3/3 
f 76/76/76 74/74/74 73/73/73 
f 93/93/93 94/94/94 95/95/95 
f 9/9/9 96/96/96 7/7/7 

